<?xml version="1.0" encoding="iso-8859-1"?><!-- Generator: Adobe Illustrator 21.1.0, SVG Export Plug-In . SVG Version: 6.00 Build 0)  --><svg xmlns="http://www.w3.org/2000/svg" xmlns:xlink="http://www.w3.org/1999/xlink" viewBox="0 0 16 16" width="512px" height="512px"><circle cx="6.5" cy="7.5" r="0.5"/><circle cx="9.5" cy="7.5" r="0.5"/><path style="fill:none;stroke:#000000;stroke-miterlimit:10;" d="M10.5,2.75c0,0,0,2.75-5.5,2.75"/><path style="fill:none;stroke:#000000;stroke-miterlimit:10;" d="M12.559,7.012C12.8,4.899,12.29,3.343,10.5,2.75c0-0.69-1-1.25-2.5-1.25c-3,0-4.229,1.264-4.548,3.075c-0.13,0.738-0.113,1.566-0.014,2.437C2.916,7.046,2.5,7.47,2.5,8c0,0.552,0.448,1.5,1,1.5c0.148,0,0.595-0.093,0.595-0.093S4.117,9.47,4.125,9.5c0.616,2.334,2.405,4,3.875,4s3.257-1.67,3.875-4c0.008-0.03,0.029-0.093,0.029-0.093S12.351,9.5,12.5,9.5c0.552,0,1-0.948,1-1.5C13.5,7.468,13.082,7.044,12.559,7.012z"/></svg>